<svg width="472" height="472" viewBox="0 0 472 472" fill="none" xmlns="http://www.w3.org/2000/svg">
<path d="M235.301 62.3994L235.824 62.5657C237.174 64.2472 240.71 72.9792 241.911 75.5307C249.524 91.5977 257.035 107.713 264.442 123.875L362.112 333.515L380.44 372.883C383.14 378.53 385.767 384.213 388.32 389.93C388.76 390.905 390.827 394.888 390.792 395.478L390.53 395.69C388.11 395.078 378.812 389.378 376.092 387.855C362.332 380.268 348.642 372.55 335.027 364.708C331.297 362.603 317.155 355.368 315.642 352.62C311.542 345.183 307.255 335.338 303.575 327.513C295.8 311.353 288.16 295.125 280.66 278.835L236.064 185.001L235.719 185.274C234.028 189.625 230.701 196.052 228.609 200.367L215.456 227.443L173.78 314.118C171.822 318.213 157.931 348.483 156.56 349.585C154.222 351.463 151.578 352.898 149.029 354.465L134.961 363.023C117.968 373.51 100.632 383.595 83.5941 394.023C82.8656 394.468 81.5129 395.315 80.6564 395.253L80.4424 394.973C80.7159 393.595 84.7889 385.45 85.7334 383.39L105.197 341.445L187.709 164.415L222.695 88.9122L231.62 69.7739C232.658 67.5927 233.949 64.2637 235.301 62.3994Z" fill="#FE7300"/>
<path d="M156.724 383.822C159.442 377.545 162.324 371.93 165.179 365.76L188.607 315.692L233.833 217.905C234.193 217.13 234.57 216.424 235.254 215.89C236.865 216.186 239.297 222.841 240.121 224.713C242.19 229.51 244.34 234.271 246.571 238.994C258.78 264.75 270.785 290.602 282.59 316.547C295.34 343.367 307.915 370.27 320.315 397.255C322.06 401.13 323.725 404.767 325.617 408.577C326.335 410.017 328.405 414.09 328.68 415.257L328.43 415.555C323.717 414.082 318.903 411.702 314.378 409.645C307.418 406.495 300.475 403.307 293.547 400.087C276.715 392.302 259.215 384.997 243.28 375.587C240.701 374.065 237.959 372.732 235.479 371.057C228.923 374.845 222.03 378.75 215.305 382.22C210.986 384.447 205.945 386.607 201.486 388.687C191.591 393.352 181.663 397.95 171.702 402.477L157.296 408.987C152.861 411.045 146.721 414.127 142.125 415.42C143.931 411.33 145.777 407.257 147.664 403.205C148.082 402.3 149.632 398.795 150.105 398.08C151.115 395.317 155.319 386.66 156.724 383.822Z" fill="#FE7300"/>
<path d="M150.105 398.08C151.115 395.317 155.319 386.66 156.724 383.822C156.852 384.15 157.171 384.767 157.066 385.07C156.374 387.06 152.85 396.39 151.782 397.18L151.387 396.575C151.004 397.04 150.515 397.682 150.105 398.08Z" fill="#E56100"/>
</svg>
